<?xml version="1.0" encoding="iso-8859-1"?>
<!-- Generator: Adobe Illustrator 18.0.0, SVG Export Plug-In . SVG Version: 6.00 Build 0)  -->
<!DOCTYPE svg PUBLIC "-//W3C//DTD SVG 1.1//EN" "http://www.w3.org/Graphics/SVG/1.1/DTD/svg11.dtd">
<svg version="1.1" id="Capa_1" xmlns="http://www.w3.org/2000/svg" xmlns:xlink="http://www.w3.org/1999/xlink" x="0px" y="0px"
	 viewBox="0 0 132.469 132.469" style="enable-background:new 0 0 132.469 132.469;" xml:space="preserve">
<g>
	<path d="M129.119,61.195c-0.27-1.481-0.71-2.92-1.28-4.26c-0.67-1.551-1.52-2.96-2.51-4.12c-0.49-0.32-0.98-0.62-1.48-0.88
		c-0.1-0.051-0.19-0.07-0.28-0.091c-0.51-0.33-1.12-0.5-1.72-0.79c-0.04-0.01-0.06-0.01-0.09-0.02c-0.26-0.15-0.53-0.28-0.82-0.37
		c-1.11-0.3-2.21-0.32-3.35-0.32c-0.12,0-0.21,0.03-0.31,0.061c-0.52-0.061-1.05-0.101-1.59-0.101H13.999
		c-5.16,0-9.62,3.03-11.72,7.4c-0.24,0.05-0.46,0.18-0.63,0.44c-1.45,2.21-1.89,4.83-1.53,7.38c-0.06,0.13-0.1,0.279-0.1,0.46
		c0.03,1.279,0.19,2.47,0.45,3.63c0.35,0.189,0.66,0.47,0.89,0.87c1.2,2.06,2.88,3.51,4.82,4.529c1.24,0.66,2.59,1.141,3.99,1.5
		c1.89,3.37,5.49,5.65,9.61,5.65h48.79c0.34-0.22,0.78-0.26,1.12,0h51.78c6.07,0,11-4.939,11-11v-2.07
		C132.469,65.995,131.179,63.195,129.119,61.195z M126.689,65.375c0,6.061-4.94,11-11,11h-51.79c-0.34-0.26-0.78-0.22-1.12,0h-48.78
		c-1.53,0-3-0.32-4.33-0.89c-1.46-0.62-2.75-1.55-3.8-2.71l-0.01-0.011c-1.78-1.949-2.86-4.55-2.86-7.39v-2.07
		c0-6.069,4.93-11,11-11h101.69c3.33,0,6.32,1.49,8.33,3.83c0.73,0.851,1.33,1.801,1.78,2.841c0.57,1.329,0.89,2.789,0.89,4.329
		V65.375z"/>
</g>
<g>
</g>
<g>
</g>
<g>
</g>
<g>
</g>
<g>
</g>
<g>
</g>
<g>
</g>
<g>
</g>
<g>
</g>
<g>
</g>
<g>
</g>
<g>
</g>
<g>
</g>
<g>
</g>
<g>
</g>
</svg>
